HIERARCHY
ROOT reference
{
  OFFSET 0 0 0
  CHANNELS 6 Xposition Yposition Zposition Zrotation Xrotation Yrotation
  JOINT Hips
  {
    OFFSET 8.83329 82.2226 -2.16208
    CHANNELS 6 Xposition Yposition Zposition Zrotation Xrotation Yrotation
    JOINT Spine
    {
      OFFSET 0 7.31558 0
      CHANNELS 6 Xposition Yposition Zposition Zrotation Xrotation Yrotation
      JOINT Spine1
      {
        OFFSET 0 21.7428 0
        CHANNELS 6 Xposition Yposition Zposition Zrotation Xrotation Yrotation
        JOINT Neck
        {
          OFFSET 0 21.6535 1.9685
          CHANNELS 6 Xposition Yposition Zposition Zrotation Xrotation Yrotation
          JOINT Head
          {
            OFFSET 0 12.49 -1.78429
            CHANNELS 6 Xposition Yposition Zposition Zrotation Xrotation Yrotation
            End Site
            {
              OFFSET 0 22.3036 0
            }
          }
        }
        JOINT LeftShoulder
        {
          OFFSET 3.56546 21.4407 -0.045508
          CHANNELS 6 Xposition Yposition Zposition Zrotation Xrotation Yrotation
          JOINT LeftArm
          {
            OFFSET 5.86532 0 0
            CHANNELS 6 Xposition Yposition Zposition Zrotation Xrotation Yrotation
            JOINT LeftForeArm
            {
              OFFSET 30.0831 0 0
              CHANNELS 6 Xposition Yposition Zposition Zrotation Xrotation Yrotation
              JOINT LeftHand
              {
                OFFSET 21.3133 0 0
                CHANNELS 6 Xposition Yposition Zposition Zrotation Xrotation Yrotation
                End Site
                {
                  OFFSET 13.3822 0 0
                }
              }
            }
          }
        }
        JOINT RightShoulder
        {
          OFFSET -3.55605 21.4407 -0.045508
          CHANNELS 6 Xposition Yposition Zposition Zrotation Xrotation Yrotation
          JOINT RightArm
          {
            OFFSET -5.86532 0 0
            CHANNELS 6 Xposition Yposition Zposition Zrotation Xrotation Yrotation
            JOINT RightForeArm
            {
              OFFSET -30.0831 0 0
              CHANNELS 6 Xposition Yposition Zposition Zrotation Xrotation Yrotation
              JOINT RightHand
              {
                OFFSET -21.3133 0 0
                CHANNELS 6 Xposition Yposition Zposition Zrotation Xrotation Yrotation
                End Site
                {
                  OFFSET -13.3822 0 0
                }
              }
            }
          }
        }
      }
    }
    JOINT LeftUpLeg
    {
      OFFSET 8.92144 0 0
      CHANNELS 6 Xposition Yposition Zposition Zrotation Xrotation Yrotation
      JOINT LeftLeg
      {
        OFFSET 0 -39.6329 0
        CHANNELS 6 Xposition Yposition Zposition Zrotation Xrotation Yrotation
        JOINT LeftFoot
        {
          OFFSET 0 -38.0584 0
          CHANNELS 6 Xposition Yposition Zposition Zrotation Xrotation Yrotation
          JOINT LeftToeBase
          {
            OFFSET 0 -5.79894 13.3822
            CHANNELS 6 Xposition Yposition Zposition Zrotation Xrotation Yrotation
            End Site
            {
              OFFSET 0 0 3.56858
            }
          }
        }
      }
    }
    JOINT RightUpLeg
    {
      OFFSET -8.92144 0 0
      CHANNELS 6 Xposition Yposition Zposition Zrotation Xrotation Yrotation
      JOINT RightLeg
      {
        OFFSET 0 -39.6329 0
        CHANNELS 6 Xposition Yposition Zposition Zrotation Xrotation Yrotation
        JOINT RightFoot
        {
          OFFSET 0 -38.0584 0
          CHANNELS 6 Xposition Yposition Zposition Zrotation Xrotation Yrotation
          JOINT RightToeBase
          {
            OFFSET 0 -5.79894 13.3822
            CHANNELS 6 Xposition Yposition Zposition Zrotation Xrotation Yrotation
            End Site
            {
              OFFSET 0 0 3.56858
            }
          }
        }
      }
    }
  }
}
MOTION
Frames:	4
Frame Time:	0.004
0 0 0 0 0 -0 -5.57385 76.7707 -207.3 -1.58026 -2.26151 6.8586 3.55271e-015 7.31558 0 0.628315 -5.25073 0.091502 3.55271e-015 21.7428 -2.84217e-014 0.956994 -2.48183 0.0843063 3.55271e-015 21.6535 1.9685 -2.57941 18.7109 1.31232 0 12.49 -1.78429 -1.34814 -2.73789 1.08288 3.56546 21.4407 -0.045508 14.971 -2.68262 -9.13193 5.86532 0 0 -17.1267 8.90515 3.08651 30.0831 -2.84217e-014 0 -1.74358 1.24676 7.305 21.3133 0 2.84217e-014 -2.1755 1.38895 -1.62209 -3.55605 21.4407 -0.045508 -12.8155 -0.308826 -2.4025 -5.86532 0 0 12.478 4.86592 -0.176407 -30.0831 2.84217e-014 2.84217e-014 -1.63002 4.37977 -3.74525 -21.3133 2.84217e-014 0 4.30572 4.49698 4.54263 8.92144 0 0 0.587126 5.44683 0.321319 -3.55271e-015 -39.6329 0 -2.44789 0.574591 1.46524 -3.55271e-015 -38.0584 -2.84217e-014 3.5132 -9.90406 6.31136 7.10543e-015 -5.79894 13.3822 2.20695e-032 7.95139e-016 -1.59028e-015 -8.92144 -1.42109e-014 -2.84217e-014 1.07387 6.68429 5.86968 -3.55271e-015 -39.6329 0 3.02268 -0.84196 -2.82086 3.55271e-015 -38.0584 0 -4.94999 -8.55 -15.6621 0 -5.79894 13.3822 2.98177e-016 0 -7.95139e-016 
0 0 0 0 0 -0 -5.56767 76.7707 -207.3 -1.58063 -2.26156 6.8492 7.10543e-015 7.31558 0 0.631238 -5.25073 0.091502 0 21.7428 -2.84217e-014 0.957009 -2.49232 0.084307 0 21.6535 1.9685 -2.59828 18.7235 1.31242 0 12.49 -1.78429 -1.33519 -2.75109 1.08289 3.56546 21.4407 -0.045508 14.9546 -2.69369 -9.12729 5.86532 0 -2.84217e-014 -17.1197 8.93269 3.08674 30.0831 0 -2.84217e-014 -1.74358 1.24676 7.305 21.3133 -2.84217e-014 0 -2.17303 1.38895 -1.62209 -3.55605 21.4407 -0.045508 -12.8238 -0.308826 -2.4025 -5.86532 2.84217e-014 2.84217e-014 12.4803 4.87778 -0.160437 -30.0831 0 2.84217e-014 -1.62148 4.37383 -3.74599 -21.3133 2.84217e-014 0 4.27179 4.48993 4.54123 8.92144 -1.42109e-014 0 0.587363 5.44683 0.318822 -3.55271e-015 -39.6329 -2.84217e-014 -2.44735 0.560153 1.44754 -3.55271e-015 -38.0584 0 3.49572 -9.88249 6.33093 0 -5.79894 13.3822 -3.97569e-016 1.59028e-015 -0 -8.92144 0 -2.84217e-014 1.0663 6.66457 5.859 -7.10543e-015 -39.6329 0 3.0235 -0.830499 -2.80281 -3.55271e-015 -38.0584 0 -4.93182 -8.54973 -15.6686 0 -5.79894 13.3822 -9.93923e-017 -7.95139e-016 7.95139e-016 
0 0 0 0 0 -0 -5.56443 76.7707 -207.3 -1.58067 -2.26156 6.84808 3.55271e-015 7.31558 0 0.638195 -5.24679 0.091799 -3.55271e-015 21.7428 0 0.960777 -2.48343 0.083805 0 21.6535 1.9685 -2.60502 18.7021 1.31017 3.55271e-015 12.49 -1.78429 -1.32749 -2.7389 1.08235 3.56546 21.4407 -0.045508 14.9482 -2.68532 -9.12234 5.86532 -2.84217e-014 -2.84217e-014 -17.1142 8.93193 3.08674 30.0831 0 2.84217e-014 -1.73666 1.2468 7.29374 21.3133 0 0 -2.22434 1.38895 -1.62005 -3.55605 21.4407 -0.045508 -12.8286 -0.300636 -2.40284 -5.86532 0 2.84217e-014 12.4889 4.90083 -0.144605 -30.0831 0 0 -1.64738 4.31745 -3.73572 -21.3133 0 0 4.24926 4.43089 4.51245 8.92144 1.42109e-014 2.84217e-014 0.585534 5.44722 0.338071 0 -39.6329 0 -2.44741 0.559787 1.45524 7.10543e-015 -38.0584 2.84217e-014 3.47265 -9.88685 6.29511 -7.10543e-015 -5.79894 13.3822 0 0 -1.59028e-015 -8.92144 -1.42109e-014 2.84217e-014 1.07105 6.66121 5.87067 -7.10543e-015 -39.6329 -2.84217e-014 3.0235 -0.825721 -2.8196 0 -38.0584 0 -4.9171 -8.5505 -15.6499 0 -5.79894 13.3822 1.98785e-016 0 -0 
0 0 0 0 0 -0 -5.55655 76.7707 -207.3 -1.58121 -2.26162 6.8345 0 7.31558 0 0.701252 -5.28342 0.131269 0 21.7428 0 0.772717 -2.41797 0.115298 -3.55271e-015 21.6535 1.9685 -2.32982 18.7399 1.26902 0 12.49 -1.78429 -1.46196 -2.78769 1.02211 3.56546 21.4407 -0.045508 15.2434 -2.62088 -9.23971 5.86532 2.84217e-014 0 -17.25 8.80396 3.09514 30.0831 0 0 -1.77117 1.24779 7.32159 21.3133 0 0 -2.22681 1.393 -1.64027 -3.55605 21.4407 -0.045508 -12.67 -0.320533 -2.41195 -5.86532 2.84217e-014 0 12.4358 4.91449 -0.170767 -30.0831 0 2.84217e-014 -1.60666 4.29961 -3.74046 -21.3133 0 2.84217e-014 4.16554 4.41273 4.55971 8.92144 0 2.84217e-014 0.584603 5.46242 0.340637 0 -39.6329 -2.84217e-014 -2.44745 0.560601 1.45659 0 -38.0584 2.84217e-014 3.52136 -9.88673 6.31625 0 -5.79894 13.3822 -1.98785e-016 0 -4.77083e-015 -8.92144 1.42109e-014 0 1.06209 6.67005 5.85069 0 -39.6329 0 3.02406 -0.820713 -2.79761 0 -38.0584 0 -4.95612 -8.5506 -15.6474 0 -5.79894 13.3822 -9.93923e-017 1.59028e-015 -7.95139e-016 
